<svg width="90" height="90" viewBox="0 0 90 90" fill="none" xmlns="http://www.w3.org/2000/svg">
<path d="M85 5H5V85H85V5Z" stroke="white" stroke-width="10"/>
<path d="M33 66V60H27V54H21V36H27V30H33V24H63V30H39V36H33V54H39V60H51V48H45V42H63V66H33Z" fill="white"/>
<path d="M33 66H32V67H33V66ZM33 60H34V59H33V60ZM27 60H26V61H27V60ZM27 54H28V53H27V54ZM21 54H20V55H21V54ZM21 36V35H20V36H21ZM27 36V37H28V36H27ZM27 30V29H26V30H27ZM33 30V31H34V30H33ZM33 24V23H32V24H33ZM63 24H64V23H63V24ZM63 30V31H64V30H63ZM39 30V29H38V30H39ZM39 36V37H40V36H39ZM33 36V35H32V36H33ZM33 54H32V55H33V54ZM39 54H40V53H39V54ZM39 60H38V61H39V60ZM51 60V61H52V60H51ZM51 48H52V47H51V48ZM45 48H44V49H45V48ZM45 42V41H44V42H45ZM63 42H64V41H63V42ZM63 66V67H64V66H63ZM34 66V60H32V66H34ZM33 59H27V61H33V59ZM28 60V54H26V60H28ZM27 53H21V55H27V53ZM22 54V36H20V54H22ZM21 37H27V35H21V37ZM28 36V30H26V36H28ZM27 31H33V29H27V31ZM34 30V24H32V30H34ZM33 25H63V23H33V25ZM62 24V30H64V24H62ZM63 29H39V31H63V29ZM38 30V36H40V30H38ZM39 35H33V37H39V35ZM32 36V54H34V36H32ZM33 55H39V53H33V55ZM38 54V60H40V54H38ZM39 61H51V59H39V61ZM52 60V48H50V60H52ZM51 47H45V49H51V47ZM46 48V42H44V48H46ZM45 43H63V41H45V43ZM62 42V66H64V42H62ZM63 65H33V67H63V65Z" fill="white"/>
</svg>
